<svg width="20" height="20" viewBox="0 0 20 20" fill="none" xmlns="http://www.w3.org/2000/svg">
<path d="M9.9499 2C12.2799 2 14.3699 3.02 15.8299 4.62L13.4499 7L19.4499 7L19.4499 1L17.2499 3.2C15.4299 1.24 12.8399 -3.08602e-07 9.9499 -4.34928e-07C4.7599 -6.6179e-07 0.499901 3.95 -9.95755e-05 9L2.0199 9C2.5099 5.06 5.8799 2 9.9499 2ZM9.9499 20C15.1399 20 19.3999 16.05 19.8999 11L17.8799 11C17.3899 14.94 14.0199 18 9.9499 18C7.6199 18 5.5299 16.98 4.0699 15.38L6.4499 13L0.449901 13L0.449901 19L2.6499 16.8C4.4699 18.76 7.0599 20 9.9499 20Z" fill="#58616A"/>
</svg>
